# xmcd
#
# Track frame offsets:
#	202
#	11353
#	22227
#	32407
#	41041
#	53800
#	61775
#	76735
#	90901
#	99709
#	112446
#
# Disc length: 1654 seconds
#
# Revision: 1
# Processed by: cddbd v1.5.2PL0 Copyright (c) Steve Scherf et al.
# Submitted via: audiograbber 1.83.01
#
DISCID=8106740b
DTITLE=Roger Miller - King of the Road
DYEAR=1996
DGENRE=Country
TTITLE0=King of the Road
TTITLE1=Don't We All Have the Right
TTITLE2=Engine Engine No. 9
TTITLE3=England Swings
TTITLE4=Heartaches by the Number
TTITLE5=Do-Wacka-Do
TTITLE6=Me and Bobbie McGee
TTITLE7=My Elusive Dreams
TTITLE8=Billy Bayou
TTITLE9=The Last Word in Lonesome is Me
TTITLE10=Walking in the Sunshine
EXTD=
EXTT0=
EXTT1=
EXTT2=
EXTT3=
EXTT4=
EXTT5=
EXTT6=
EXTT7=
EXTT8=
EXTT9=
EXTT10=
PLAYORDER=
